<svg version="1.1" id="Layer_1" xmlns="http://www.w3.org/2000/svg" xmlns:xlink="http://www.w3.org/1999/xlink" x="0px" y="0px"
	 width="100%" viewBox="0 0 900 900" enable-background="new 0 0 900 900" xml:space="preserve">
<path fill="#F5C618" opacity="1.000000" stroke="none" 
	d="
M456.000000,901.000000 
	C305.500000,901.000000 155.499985,900.983765 5.500069,901.094055 
	C1.750617,901.096802 0.905528,900.249146 0.906808,896.499939 
	C1.008266,599.500000 1.008266,302.500000 0.906808,5.500032 
	C0.905527,1.750874 1.750873,0.905528 5.500032,0.906809 
	C302.500000,1.008261 599.500000,1.008261 896.499939,0.906809 
	C900.249146,0.905528 901.094482,1.750873 901.093201,5.500032 
	C900.991760,302.500000 900.991699,599.500000 901.093201,896.499939 
	C901.094482,900.249146 900.249390,901.096863 896.499939,901.094055 
	C749.833313,900.983337 603.166687,901.000000 456.000000,901.000000 
z"/>
<path fill="#050807" opacity="1.000000" stroke="none" 
	d="
M426.470001,330.859497 
	C426.531708,408.178162 426.527069,485.166656 426.511780,562.155151 
	C426.511261,564.818237 426.404572,567.481323 426.174561,570.587891 
	C425.828033,571.153748 425.654266,571.276184 425.162537,571.420898 
	C407.860748,571.438110 390.877014,571.432861 373.422241,571.402527 
	C372.398438,571.031738 371.955414,570.578613 371.437378,569.573547 
	C370.939453,567.818359 371.023926,566.482849 371.002136,565.154358 
	C370.382202,527.409668 370.894867,489.654846 370.238525,451.918762 
	C370.063690,441.867859 369.220398,431.871094 370.473602,421.436676 
	C370.314728,419.721527 370.384460,418.437653 370.817017,417.185699 
	C370.059052,419.061829 370.584167,421.008575 370.487366,423.254303 
	C370.475464,423.808014 370.467346,424.028748 370.425781,424.577911 
	C370.297363,425.338470 370.199799,425.769958 370.062927,426.533813 
	C370.077911,428.689728 369.305542,430.432587 369.499878,432.614502 
	C369.492584,433.882416 369.510193,434.806061 369.353149,436.064148 
	C368.865784,437.712067 369.105957,439.097260 368.763519,440.730530 
	C368.552551,441.608612 368.377838,442.174408 368.383911,443.070435 
	C368.400269,443.995178 368.275238,444.593872 367.879456,445.450836 
	C367.553314,446.121674 367.370361,446.508728 367.124725,447.217285 
	C367.004761,448.193604 366.998718,448.853241 366.919800,449.844849 
	C366.323639,451.442749 365.899658,452.736053 365.952118,454.498871 
	C365.865723,455.089874 365.808899,455.325348 365.607483,455.899780 
	C364.960297,460.266724 364.078064,464.248718 363.992065,468.717041 
	C363.971649,469.892761 363.915649,470.671570 363.335388,471.721222 
	C362.978424,472.446899 362.838165,472.843170 362.751526,473.554321 
	C362.953033,474.007477 363.100861,474.145752 363.309265,474.581757 
	C363.255585,475.269745 363.157043,475.663910 363.043823,476.366577 
	C362.999817,477.081726 362.972870,477.491028 362.869507,478.201965 
	C362.543335,479.300201 362.089233,479.995667 361.584381,481.007935 
	C361.459869,481.657898 361.417969,482.007385 361.418671,482.617615 
	C361.897217,483.779877 362.007629,484.734833 361.861511,486.077637 
	C361.630707,486.887238 361.447388,487.332428 361.159790,488.118408 
	C360.984650,489.417450 361.010498,490.371796 360.945374,491.678711 
	C360.170990,494.548859 359.725983,497.103027 359.943451,500.098450 
	C360.034821,502.423309 359.370880,504.270477 358.995483,506.534302 
	C358.645966,508.081390 358.475708,509.285095 358.393372,510.871399 
	C358.062653,512.183716 358.000916,513.159485 357.958801,514.507324 
	C357.672363,516.314880 357.088196,517.687378 357.014587,519.532959 
	C356.999939,520.615784 356.998688,521.335510 356.966949,522.407959 
	C356.616150,524.111145 356.507965,525.503906 356.117615,527.188843 
	C356.025635,527.970154 356.000916,528.417480 355.962158,529.195679 
	C355.800507,530.380676 355.195923,531.144653 355.467957,532.406616 
	C355.595154,533.890808 355.336456,534.988220 354.895752,536.412842 
	C354.406799,538.414978 354.442932,540.141541 354.021790,542.185303 
	C353.626984,545.186951 353.557800,547.844299 352.949158,550.850098 
	C352.465302,553.485657 352.189667,555.731873 351.966919,558.429565 
	C350.956665,561.408936 351.017151,564.071289 350.945709,566.731689 
	C350.851196,570.250183 349.436798,572.106934 345.439911,572.072632 
	C334.956146,571.982666 324.468781,571.884888 313.983826,572.012329 
	C310.709595,572.052124 309.368927,570.708679 308.912415,567.359863 
	C305.713623,543.895935 302.201294,520.472900 298.753326,497.047028 
	C296.632996,482.641296 294.581696,468.201935 292.357849,453.803802 
	C290.878174,444.223724 287.132355,434.923584 288.180359,427.933960 
	C287.983826,431.102448 290.105774,437.204681 288.199341,443.361816 
	C287.661285,445.099579 288.005829,447.008209 288.005463,448.838440 
	C287.997711,487.492218 288.005157,526.145996 287.995575,564.799744 
	C287.993774,572.054688 287.034393,572.582397 279.812469,572.231079 
	C267.000214,571.607666 254.163467,572.121521 241.337967,571.985046 
	C238.516449,571.955017 235.674118,572.307800 232.476746,571.436401 
	C232.079269,571.211060 232.058517,570.951233 231.928802,570.938293 
	C230.633377,569.099731 231.017242,567.047302 231.016724,565.079895 
	C230.996674,488.643829 230.995544,412.207794 231.023712,335.771729 
	C231.024429,333.822845 230.520767,331.749298 232.277008,329.710968 
	C233.798035,328.972656 234.967041,329.009552 236.124969,329.011017 
	C261.156799,329.042572 286.188812,328.897339 311.665253,329.170135 
	C314.169434,330.004028 314.649902,331.865814 314.869659,333.652985 
	C316.102142,343.675476 317.536377,353.680054 319.133698,363.637451 
	C321.805603,380.293427 323.836823,397.041809 326.430603,413.708710 
	C327.434692,420.160614 330.782379,426.310486 329.376556,433.094025 
	C330.825073,422.640808 333.314911,412.358337 334.399933,401.842896 
	C335.111420,394.947144 336.078064,388.070465 336.897308,381.187164 
	C337.971497,372.162048 339.460236,363.197601 340.506226,354.169891 
	C341.059387,349.395752 341.035522,344.555176 342.203064,339.440552 
	C342.495605,338.239502 342.793060,337.465912 342.952515,336.236328 
	C343.004089,334.984802 343.002533,334.145416 343.156555,332.885071 
	C343.617462,331.331726 343.994202,330.202026 345.569336,329.396698 
	C372.380524,328.832306 398.760284,328.908508 425.610352,329.312744 
	C426.080566,329.447540 425.959747,329.693085 426.035400,329.807098 
	C426.207977,330.123840 426.304932,330.326599 426.470001,330.859497 
z"/>
<path fill="#050808" opacity="1.000000" stroke="none" 
	d="
M516.988281,571.464783 
	C495.497833,571.464722 474.504028,571.356445 453.513153,571.555237 
	C449.262726,571.595398 447.769592,570.622498 447.777893,566.059875 
	C447.918152,488.920044 447.891907,411.779907 447.848328,334.639862 
	C447.846558,331.481750 447.887146,329.346619 452.199005,329.427429 
	C479.675110,329.942383 507.182892,328.537262 534.630615,330.790497 
	C543.443848,331.513947 552.201172,332.644348 560.504150,335.931091 
	C578.450012,343.034912 587.671509,356.423126 589.254272,375.511383 
	C590.716125,393.142365 590.519165,410.799805 590.523560,428.455475 
	C590.530640,457.111816 590.510010,485.768738 590.308594,514.424072 
	C590.260681,521.238953 589.753723,528.085205 588.934570,534.853638 
	C586.476074,555.168884 575.111206,566.453979 554.387756,569.634277 
	C542.146912,571.512817 529.808533,571.300415 516.988281,571.464783 
z"/>
<path fill="#050807" opacity="1.000000" stroke="none" 
	d="
M671.407043,329.252594 
	C673.017151,331.218628 672.577637,333.268707 672.580566,335.234802 
	C672.612549,357.054962 672.594482,378.875275 672.630432,400.695435 
	C672.633362,402.479553 672.199402,404.338287 673.111267,406.049805 
	C674.644531,406.509583 675.177307,405.187531 675.960632,404.463379 
	C691.312927,390.269012 717.375916,386.492554 736.110535,395.940094 
	C746.031799,400.943176 751.703796,409.209503 753.335327,420.128601 
	C753.923035,424.061371 754.060059,428.090515 754.067200,432.076324 
	C754.122681,462.891052 754.155151,493.706177 754.040466,524.520630 
	C754.019470,530.166443 753.628784,535.856689 752.836792,541.445435 
	C750.205688,560.010925 735.022034,573.400635 715.816589,574.428833 
	C699.881470,575.281921 685.806519,571.250183 674.846191,558.940796 
	C674.324280,558.354553 673.631775,557.920105 672.581543,557.054688 
	C671.058350,561.985657 669.665955,566.493164 668.062378,571.347534 
	C649.608887,572.155396 631.367065,572.281860 612.666260,571.464722 
	C612.206482,571.297852 612.200317,570.964111 612.037720,570.926575 
	C610.679688,569.266235 611.015808,567.376160 611.015381,565.574768 
	C610.996765,488.824341 610.998230,412.073944 611.007080,335.323517 
	C611.007263,333.830444 610.887939,332.321869 611.583191,330.421570 
	C611.817993,329.981903 612.005005,329.956390 611.991699,329.862976 
	C613.157227,329.009888 614.489929,329.006439 615.816101,329.010956 
	C634.187317,329.073700 652.559204,328.832886 671.407043,329.252594 
z"/>
<path fill="#040707" opacity="1.000000" stroke="none" 
	d="
M147.864807,498.999939 
	C147.864532,443.859009 147.915421,389.217896 147.762711,334.577393 
	C147.751038,330.398682 148.800354,329.360870 152.949768,329.419830 
	C170.604568,329.670624 188.265579,329.604828 205.922760,329.460754 
	C209.301147,329.433228 210.493423,330.262421 210.488876,333.865173 
	C210.391159,411.495178 210.390823,489.125336 210.487305,566.755371 
	C210.492065,570.577515 209.182190,571.542053 205.563660,571.511414 
	C187.740005,571.360474 169.913193,571.336182 152.090378,571.530579 
	C148.412445,571.570679 147.774796,570.295044 147.794968,566.967651 
	C147.931366,544.479126 147.865341,521.989319 147.864807,498.999939 
z"/>
<path fill="#CFAE33" opacity="1.000000" stroke="none" 
	d="
M353.810669,536.352722 
	C354.245544,534.980286 354.427887,533.904480 354.680420,532.508606 
	C354.568878,531.685303 354.501953,531.167114 354.763855,530.301331 
	C355.006195,529.543457 355.034576,529.118469 355.107971,528.377075 
	C355.829895,526.625000 355.320251,525.080994 355.771851,523.294067 
	C356.030548,522.244446 356.076782,521.506165 356.163544,520.400146 
	C356.783142,518.592773 356.337799,517.070007 356.790955,515.305420 
	C357.111023,513.966003 357.203735,512.922852 357.348907,511.490448 
	C357.562225,509.926910 357.435730,508.738586 357.803772,507.293213 
	C358.286011,504.948975 358.538391,502.874664 358.863037,500.411011 
	C359.518097,497.608917 359.531769,495.148071 359.786743,492.349304 
	C360.194550,490.964325 360.370087,489.918030 360.642456,488.485291 
	C360.665344,487.885620 360.591431,487.672363 360.722839,487.189941 
	C361.007294,485.829895 361.086395,484.738983 361.313385,483.263214 
	C364.246368,486.627594 361.927429,490.568512 361.484528,494.227264 
	C358.512665,518.778076 355.095886,543.274780 351.949219,567.805176 
	C351.509735,571.231018 350.047302,572.987122 346.583313,572.985901 
	C335.441376,572.981995 324.299408,572.989075 313.157471,572.973083 
	C310.236145,572.968872 308.509186,571.587402 308.083099,568.589417 
	C304.740997,545.074280 301.424377,521.555359 297.991638,498.053375 
	C295.469940,480.788544 292.786163,463.547333 290.167145,446.296753 
	C290.076904,445.702332 289.906128,445.120117 288.921326,444.613251 
	C288.921326,446.386688 288.921509,448.160126 288.921326,449.933563 
	C288.917084,488.250549 288.917725,526.567566 288.904480,564.884521 
	C288.901672,573.067261 287.285126,573.763062 278.979126,573.370178 
	C265.515411,572.733459 252.005081,573.106934 238.515305,572.968262 
	C236.436478,572.946960 234.142426,573.708008 232.208939,571.558594 
	C248.731369,571.237061 265.385406,571.132202 282.034210,571.380249 
	C286.247253,571.442993 286.917206,569.775024 286.913849,566.087280 
	C286.871216,518.958130 286.963654,471.828827 287.021149,424.699554 
	C287.024109,422.269745 287.021484,419.839935 287.987457,417.348999 
	C289.691254,429.143860 291.387360,440.939819 293.100311,452.733337 
	C297.453766,482.706451 301.821472,512.677429 306.168213,542.651550 
	C307.314484,550.555969 308.523651,558.454285 309.468018,566.383545 
	C309.893402,569.954895 311.100769,571.519043 315.081207,571.389343 
	C324.729980,571.074829 334.403656,571.064148 344.051636,571.392578 
	C348.434235,571.541748 350.076935,569.967896 350.135895,565.793640 
	C350.168549,563.483337 350.741638,561.180664 351.141632,558.475891 
	C351.833160,555.981384 351.294739,553.820740 351.845764,551.416016 
	C352.466339,548.388428 352.809174,545.650146 353.244385,542.500000 
	C353.674561,540.285828 353.380859,538.458008 353.810669,536.352722 
z"/>
<path fill="#CFAE33" opacity="1.000000" stroke="none" 
	d="
M232.848328,329.068970 
	C231.525024,330.677979 231.882599,332.423676 231.882568,334.053589 
	C231.881317,412.707733 231.893768,491.361908 231.851898,570.470703 
	C229.454346,570.003479 230.080429,567.916809 230.079819,566.204468 
	C230.052261,488.862030 230.056107,411.519562 230.076431,334.177124 
	C230.076889,332.402771 229.654114,330.446472 231.829193,328.961395 
	C232.387222,328.786224 232.577896,328.790222 232.848328,329.068970 
z"/>
<path fill="#ECC642" opacity="1.000000" stroke="none" 
	d="
M611.483887,330.163452 
	C611.864380,335.635223 611.950012,341.288513 611.951233,346.941833 
	C611.967285,421.289520 611.971375,495.637177 611.926880,570.436951 
	C609.485779,570.036621 610.051270,567.954285 610.050720,566.225098 
	C610.027710,489.151917 610.030762,412.078735 610.053528,335.005554 
	C610.054016,333.397430 609.625305,331.622864 611.483887,330.163452 
z"/>
<path fill="#CFAE33" opacity="1.000000" stroke="none" 
	d="
M343.234741,337.848755 
	C338.885773,371.632355 334.675659,405.167542 330.465576,438.702728 
	C330.083466,438.746582 329.701324,438.790466 329.319214,438.834351 
	C323.961060,402.673981 318.602905,366.513580 313.092590,329.942444 
	C312.940399,329.531708 312.671844,329.171814 312.741669,328.958435 
	C314.603241,329.335083 315.476288,330.702515 315.730316,332.450989 
	C318.137360,349.016144 320.524506,365.584229 322.899292,382.154022 
	C324.616150,394.133240 326.306122,406.116272 328.006378,418.097839 
	C328.145935,419.081390 328.164032,420.373169 329.383209,420.430176 
	C330.984131,420.505035 330.947144,418.977539 331.108704,417.884369 
	C332.102081,411.161438 333.136841,404.442902 333.995636,397.702209 
	C335.881927,382.896515 337.659607,368.076996 339.506134,353.266174 
	C340.325836,346.691681 341.227142,340.127319 342.040283,333.552032 
	C342.223724,332.068817 342.079956,330.516174 343.909912,329.391907 
	C344.652802,330.250671 344.470642,331.307465 344.218262,332.676727 
	C343.861481,333.729431 343.733246,334.459808 343.523041,335.552185 
	C343.579163,336.482605 343.501190,337.042480 343.234741,337.848755 
z"/>
<path fill="#CFAE33" opacity="1.000000" stroke="none" 
	d="
M366.754456,442.217957 
	C367.072723,440.251038 367.224884,438.587280 367.463074,436.515137 
	C367.435760,435.239594 367.487091,434.375336 367.841003,433.298645 
	C368.336212,430.977966 368.585297,428.870667 368.923706,426.377991 
	C368.878906,425.829529 368.744751,425.666443 368.878601,425.334473 
	C369.146576,425.165588 369.123627,425.112305 369.143585,425.091248 
	C370.305664,423.128021 368.194183,420.370667 370.988159,419.080353 
	C371.345734,433.508087 371.519012,447.635376 371.550903,461.763031 
	C371.631592,497.507629 371.648804,533.252380 371.693848,569.460815 
	C371.557709,570.134888 371.419098,570.345337 371.037933,570.265869 
	C369.598602,567.973206 370.038788,565.756287 370.036957,563.623779 
	C370.004669,526.660461 370.014679,489.697144 369.961914,452.733948 
	C369.959229,450.851257 370.601898,448.798431 368.829132,446.517975 
	C366.464844,453.837677 366.113098,461.039276 364.993561,468.086395 
	C364.787384,469.384277 365.017578,470.788300 363.456299,471.894196 
	C363.100616,471.306488 363.082581,470.562378 363.139832,469.448425 
	C363.285492,464.593994 364.702179,460.245697 364.800415,455.389923 
	C365.035583,455.039703 364.997742,455.017365 365.019257,455.013672 
	C365.942261,453.617096 365.273468,452.041962 365.721100,450.235931 
	C365.946533,449.178497 366.006042,448.462280 366.110413,447.389465 
	C366.357208,446.745605 366.519714,446.437531 366.467468,445.913513 
	C366.386078,445.085175 366.479919,444.451935 366.652405,443.508118 
	C366.683441,442.972046 366.635895,442.746552 366.754456,442.217957 
z"/>
<path fill="#EEC743" opacity="1.000000" stroke="none" 
	d="
M425.854675,329.151978 
	C399.401703,329.480774 372.722839,329.514008 345.584778,329.587738 
	C344.910400,329.533020 344.695190,329.437805 344.745117,329.109467 
	C346.465302,327.804626 348.161926,328.007233 349.803253,328.006439 
	C373.659515,327.994843 397.515808,327.991669 421.372070,328.006927 
	C422.830444,328.007843 424.386353,327.697113 425.854675,329.151978 
z"/>
<path fill="#EEC744" opacity="1.000000" stroke="none" 
	d="
M312.474304,328.554413 
	C312.811493,328.745026 312.834412,329.146210 312.887390,329.338959 
	C286.581543,329.515167 260.222656,329.498627 233.395950,329.412903 
	C232.825302,329.149811 232.672195,329.011871 232.332672,328.856018 
	C233.347870,327.931122 234.691055,327.983307 236.017731,327.983582 
	C260.575104,327.988892 285.132477,327.993958 309.689819,328.020294 
	C310.505737,328.021179 311.321381,328.244293 312.474304,328.554413 
z"/>
<path fill="#ECC642" opacity="1.000000" stroke="none" 
	d="
M671.683289,329.082977 
	C652.225342,329.468231 632.566528,329.562286 612.442993,329.712952 
	C612.698364,328.034760 614.218201,328.007324 615.747803,328.007538 
	C633.559204,328.009949 651.370667,328.003754 669.182007,328.049316 
	C669.949402,328.051270 670.715576,328.533386 671.683289,329.082977 
z"/>
<path fill="#ECC642" opacity="1.000000" stroke="none" 
	d="
M612.434814,571.565002 
	C630.459717,571.366272 648.712952,571.434692 667.408691,571.598694 
	C666.878052,573.280457 665.269165,572.994690 663.811218,572.996521 
	C648.156982,573.016235 632.502747,573.010864 616.848511,573.002563 
	C615.353516,573.001770 613.817932,573.079895 612.434814,571.565002 
z"/>
<path fill="#CFAE33" opacity="1.000000" stroke="none" 
	d="
M362.464539,474.922546 
	C362.332825,474.559418 362.374573,474.390472 362.610748,474.045349 
	C364.374390,476.130554 364.436493,478.419647 362.635010,480.931396 
	C361.215118,480.636719 361.584442,479.652863 361.798279,478.412476 
	C362.058990,477.587524 362.087646,477.147766 362.147949,476.378967 
	C362.361420,475.753143 362.514313,475.442078 362.464539,474.922546 
z"/>
<path fill="#7E6A1C" opacity="1.000000" stroke="none" 
	d="
M370.890198,570.229248 
	C370.795380,569.976013 371.242676,569.891663 371.469482,569.908081 
	C372.017975,570.214600 372.339630,570.504639 372.806244,571.086060 
	C371.811584,572.142883 371.453735,571.190918 370.890198,570.229248 
z"/>
<path fill="#7E6A1C" opacity="1.000000" stroke="none" 
	d="
M344.825989,328.975494 
	C345.010223,328.876373 345.183502,329.235046 345.154541,329.431641 
	C344.869476,330.548523 344.613342,331.468781 344.173431,332.694031 
	C344.010742,331.988190 344.031799,330.977356 344.153076,329.598236 
	C344.253235,329.229950 344.641754,329.074615 344.825989,328.975494 
z"/>
<path fill="#7E6A1C" opacity="1.000000" stroke="none" 
	d="
M361.837769,478.317963 
	C362.102325,478.801056 362.174316,479.574829 362.292450,480.736877 
	C362.338593,481.125214 361.946686,481.337982 361.724243,481.323181 
	C361.549561,480.408447 361.597382,479.508545 361.837769,478.317963 
z"/>
<path fill="#7E6A1C" opacity="1.000000" stroke="none" 
	d="
M425.000671,571.607910 
	C425.018188,571.320496 425.191895,571.197571 425.683716,571.053040 
	C426.029297,571.630920 425.713287,571.838806 425.000671,571.607910 
z"/>
<path fill="#7E6A1C" opacity="1.000000" stroke="none" 
	d="
M426.684753,331.013733 
	C426.423706,330.992767 426.309326,330.795868 426.152985,330.260040 
	C426.714935,329.940796 426.881683,330.304016 426.684753,331.013733 
z"/>
<path fill="#7E6A1C" opacity="1.000000" stroke="none" 
	d="
M371.440369,418.994263 
	C369.487518,420.719330 370.462769,422.924805 369.378906,424.806946 
	C368.835571,420.763794 369.450043,416.643890 371.643951,411.919678 
	C371.643951,414.752258 371.643951,416.680084 371.440369,418.994263 
z"/>
<path fill="#7E6A1C" opacity="1.000000" stroke="none" 
	d="
M364.846191,455.371460 
	C365.511139,459.596893 364.266418,463.970581 363.412384,468.742798 
	C362.558929,464.497620 364.108826,460.154419 364.846191,455.371460 
z"/>
<path fill="#7E6A1C" opacity="1.000000" stroke="none" 
	d="
M359.854584,492.326447 
	C360.289429,494.506897 360.220703,496.975433 359.175537,499.702698 
	C358.261139,497.467163 359.467468,495.105011 359.854584,492.326447 
z"/>
<path fill="#7E6A1C" opacity="1.000000" stroke="none" 
	d="
M351.904297,551.442017 
	C351.942413,553.217346 351.761322,555.308044 351.396179,557.738037 
	C350.793182,555.927490 351.049744,553.828247 351.904297,551.442017 
z"/>
<path fill="#7E6A1C" opacity="1.000000" stroke="none" 
	d="
M353.871338,536.382446 
	C353.958374,537.852722 353.853485,539.649353 353.542725,541.766968 
	C352.909973,540.260437 353.308807,538.485474 353.871338,536.382446 
z"/>
<path fill="#7E6A1C" opacity="1.000000" stroke="none" 
	d="
M355.790009,523.301819 
	C356.342224,524.513977 356.093872,525.987671 355.357727,527.747681 
	C354.768616,526.527710 355.063568,525.062439 355.790009,523.301819 
z"/>
<path fill="#7E6A1C" opacity="1.000000" stroke="none" 
	d="
M356.807983,515.315002 
	C357.396637,516.526367 357.103424,517.980835 356.405457,519.724365 
	C355.841766,518.517883 356.088104,517.057617 356.807983,515.315002 
z"/>
<path fill="#7E6A1C" opacity="1.000000" stroke="none" 
	d="
M365.707458,450.225952 
	C366.201385,451.437836 366.062469,452.941406 365.267151,454.708740 
	C364.633423,453.463379 365.001282,452.001556 365.707458,450.225952 
z"/>
<path fill="#7E6A1C" opacity="1.000000" stroke="none" 
	d="
M357.809082,507.302795 
	C357.956329,508.187531 357.878998,509.351776 357.601501,510.808655 
	C356.977417,509.903046 357.139404,508.735291 357.809082,507.302795 
z"/>
<path fill="#7E6A1C" opacity="1.000000" stroke="none" 
	d="
M367.885315,433.339417 
	C368.042786,433.925079 367.998474,434.764893 367.751648,435.855743 
	C367.593964,435.269043 367.638763,434.431335 367.885315,433.339417 
z"/>
<path fill="#7E6A1C" opacity="1.000000" stroke="none" 
	d="
M343.254425,337.850159 
	C343.095703,337.525696 343.095551,336.954254 343.268250,336.148438 
	C343.431702,336.477142 343.422333,337.040161 343.254425,337.850159 
z"/>
<path fill="#7E6A1C" opacity="1.000000" stroke="none" 
	d="
M354.840515,530.163208 
	C354.997620,530.472534 355.017426,530.976624 354.893921,531.834595 
	C354.734833,531.578369 354.719055,530.968079 354.840515,530.163208 
z"/>
<path fill="#7E6A1C" opacity="1.000000" stroke="none" 
	d="
M360.791687,487.091919 
	C361.079590,487.188446 361.102142,487.466492 360.867554,487.926941 
	C360.550903,487.836426 360.522858,487.557831 360.791687,487.091919 
z"/>
<path fill="#7E6A1C" opacity="1.000000" stroke="none" 
	d="
M362.166443,474.930969 
	C362.478851,475.012390 362.521362,475.316650 362.299072,475.845581 
	C361.992340,475.765717 361.946442,475.460266 362.166443,474.930969 
z"/>
<path fill="#7E6A1C" opacity="1.000000" stroke="none" 
	d="
M366.166138,445.918396 
	C366.481506,446.004028 366.520599,446.308868 366.282410,446.832916 
	C365.980438,446.745270 365.942017,446.440399 366.166138,445.918396 
z"/>
<path fill="#7E6A1C" opacity="1.000000" stroke="none" 
	d="
M366.778259,442.037231 
	C366.940979,442.136230 366.961426,442.357635 366.856445,442.888306 
	C366.659393,442.970032 366.565338,442.746277 366.526154,442.513275 
	C366.507874,442.404633 366.596008,442.278076 366.778259,442.037231 
z"/>
<path fill="#7E6A1C" opacity="1.000000" stroke="none" 
	d="
M368.997162,425.204834 
	C369.146576,425.165588 369.235443,425.604187 369.124237,425.798401 
	C368.695251,425.819305 368.640137,425.569794 368.997162,425.204834 
z"/>
<path fill="#EBBF1C" opacity="1.000000" stroke="none" 
	d="
M510.624756,397.999573 
	C510.626221,390.008453 510.754608,382.514221 510.571655,375.027618 
	C510.488586,371.629089 511.834229,370.795349 515.014038,370.948761 
	C525.651978,371.462097 529.432983,374.880005 530.036194,385.387360 
	C531.096252,403.849609 530.572083,422.335358 530.519531,440.808655 
	C530.452393,464.442017 531.225769,488.086426 529.878906,511.707123 
	C529.737488,514.188538 529.396912,516.678711 528.907532,519.116394 
	C527.473938,526.257263 519.833740,531.142700 512.745178,529.653076 
	C511.350891,529.360046 510.698853,528.704895 510.674805,527.346008 
	C510.648285,525.848328 510.629211,524.350281 510.629089,522.852356 
	C510.625854,481.401428 510.625488,439.950531 510.624756,397.999573 
z"/>
<path fill="#EEC11D" opacity="1.000000" stroke="none" 
	d="
M689.512695,428.402893 
	C691.655090,430.071808 692.383728,432.079498 692.625977,434.285583 
	C693.025269,437.921936 693.647827,441.565338 693.660278,445.207489 
	C693.745544,470.177002 693.732971,495.147125 693.650330,520.116699 
	C693.638306,523.764038 693.225342,527.427795 692.751343,531.051697 
	C692.013000,536.696838 688.634521,539.346619 682.373901,539.479736 
	C677.322998,539.587036 674.656799,537.411316 673.648987,531.861694 
	C673.087158,528.768005 672.831909,525.583069 672.795349,522.435059 
	C672.474548,494.804504 672.331787,467.173187 672.872192,439.543091 
	C672.881897,439.043884 672.907410,438.544891 672.932373,438.046143 
	C673.517212,426.351440 678.570312,423.284973 689.512695,428.402893 
z"/>
<path fill="#F5C618" opacity="1.000000" stroke="none" 
	d="
M329.481750,423.511780 
	C329.468689,423.482147 329.494812,423.541382 329.481750,423.511780 
z"/>
</svg>